<?xml version="1.0" encoding="UTF-8"?>
<svg width="210px" height="51px" viewBox="0 0 210 51" version="1.1" xmlns="http://www.w3.org/2000/svg" xmlns:xlink="http://www.w3.org/1999/xlink">
    <title>Imtoken</title>
    <defs>
        <linearGradient x1="97.204%" y1="2.796%" x2="0%" y2="100%" id="linearGradient-1">
            <stop stop-color="#11C4D1" offset="0%"></stop>
            <stop stop-color="#0062AD" offset="100%"></stop>
        </linearGradient>
    </defs>
    <g id="PC" stroke="none" stroke-width="1" fill="none" fill-rule="evenodd">
        <g id="首页" transform="translate(-396.000000, -2730.000000)">
            <g id="编组-23" transform="translate(360.000000, 2705.529158)">
                <g id="Imtoken" transform="translate(36.000000, 25.213057)">
                    <rect id="矩形" x="0" y="0" width="210" height="50"></rect>
                    <g id="imToken" transform="translate(30.000000, 12.808541)" fill-rule="nonzero">
                        <path d="M33.975,1.53272727 C35.0536364,16.1427273 25.6622727,23.0481818 17.2431818,23.7845455 C9.41590909,24.4690909 2.04818182,19.6595455 1.40181818,12.27 C0.868636364,6.165 4.64181818,3.56590909 7.60636364,3.30681818 C10.6554545,3.03954545 13.2177273,5.14227273 13.44,7.68818182 C13.6540909,10.1359091 12.1268182,11.25 11.0645455,11.3427273 C10.2245455,11.4163636 9.16772727,10.9063636 9.07227273,9.81136364 C8.99045455,8.87045455 9.34772727,8.74227273 9.26045455,7.74272727 C9.105,5.96318182 7.55318182,5.75590909 6.70363636,5.82954545 C5.67545455,5.91954545 3.81,7.11954545 4.07181818,10.1086364 C4.335,13.1236364 7.22590909,15.5059091 11.0154545,15.1745455 C15.105,14.8172727 17.9522727,11.6331818 18.1663636,7.16727273 C18.1644259,6.93073453 18.214225,6.69663256 18.3122727,6.48136364 L18.3136364,6.47590909 C18.3576985,6.38236876 18.409229,6.29253238 18.4677273,6.20727273 C18.555,6.07636364 18.6668182,5.93181818 18.8113636,5.77363636 C18.8127273,5.76954545 18.8127273,5.76954545 18.8154545,5.76954545 C18.9204545,5.65090909 19.0472727,5.52272727 19.1904545,5.385 C20.9768182,3.69954545 27.4104545,-0.275454545 33.495,0.983181818 C33.7590777,1.03979535 33.9544154,1.26343487 33.975,1.53272727" id="路径" fill="url(#linearGradient-1)"></path>
                        <g id="编组" transform="translate(46.363636, 2.045455)" fill="#11293B">
                            <rect id="矩形" x="0.395454545" y="5.74772727" width="2.97545455" height="14.085" rx="0.071"></rect>
                            <path d="M42.8795455,0.773181818 L42.8795455,2.96318182 C42.8780691,3.01483186 42.835762,3.05593019 42.7840909,3.05590909 L37.1440909,3.05590909 C37.0918913,3.05514215 37.0487587,3.09645223 37.0472727,3.14863636 L37.0472727,19.7440909 C37.0465597,19.7694105 37.0358123,19.7934085 37.0173974,19.8108004 C36.9989824,19.8281923 36.9744099,19.8375519 36.9490909,19.8368583 L34.0418182,19.8368583 C33.9901303,19.8376039 33.9472095,19.7971011 33.945,19.7454545 L33.945,3.14863636 C33.9435141,3.09645223 33.9003815,3.05514215 33.8481818,3.05590909 L27.6995455,3.05590909 C27.6478743,3.05593019 27.6055672,3.01483186 27.6040909,2.96318182 L27.6040909,0.773181818 C27.6055672,0.721531776 27.6478743,0.680308442 27.6995455,0.680308442 L42.7745455,0.680308442 C42.8018182,0.679090909 42.8290909,0.687272727 42.8481818,0.705 C42.8679192,0.722186221 42.8793388,0.747011464 42.8795455,0.773181818 Z M28.4754545,10.8504545 L28.5054545,10.8559091 L28.5054545,19.7440909 C28.5039782,19.795741 28.4616711,19.8368393 28.41,19.8368182 L25.695,19.8368182 C25.669681,19.8375519 25.6451085,19.8281923 25.6266936,19.8108004 C25.6082786,19.7934085 25.5975313,19.7694105 25.5968182,19.7440909 L25.5968182,12.9272727 C25.5968182,12.6381818 25.6022727,12.3477273 25.6022727,12.0627273 C25.6022727,11.9154545 25.6022727,11.7736364 25.5968182,11.6304545 C25.5968182,11.2172727 25.5695455,10.8040909 25.515,10.3922727 C25.3104545,8.91136364 24.7063636,7.83681818 22.5586364,7.86545455 C21.9371541,7.88549831 21.328853,8.04982833 20.7818182,8.34545455 C20.145,8.71636364 19.4386364,9.23181818 19.0418182,9.95045455 C19.10495,10.4242244 19.1372906,10.9015897 19.1386364,11.3795455 L19.1386364,11.3945455 C19.1386364,11.4736364 19.1440909,11.5527273 19.1440909,11.6263636 L19.1440909,19.9390909 C19.142605,19.991275 19.0994724,20.0325851 19.0472727,20.0318287 L16.3977273,20.0318287 C16.3455276,20.0325851 16.302395,19.991275 16.3009091,19.9390909 L16.3009091,12.9190909 C16.3009091,11.3713636 16.3827273,9.75954545 15.6163636,8.76136364 C15.1527273,8.16272727 14.4940909,7.88181818 13.2081818,7.88181818 C12.6831818,7.88181818 11.9986364,8.06727273 11.4736364,8.31818182 C11.1136364,8.48590909 10.7781818,8.69727273 10.4754545,8.94818182 C10.0431818,9.33 9.72818182,9.82227273 9.72818182,10.3827273 L9.72818182,19.7481818 C9.7267055,19.7998319 9.6843984,19.8409302 9.63272727,19.8409091 L6.92863636,19.8409091 C6.87696523,19.8409302 6.83465813,19.7998319 6.83318182,19.7481818 L6.83318182,5.93181818 C6.83465813,5.88016814 6.87696523,5.83906981 6.92863636,5.83909091 L8.06727273,5.83909091 C8.52818182,5.83909091 8.93318182,6.12818182 9.06272727,6.55090909 L9.23454545,7.11 C9.23454545,7.14818182 9.25909091,7.18090909 9.29454545,7.19454545 C9.33136364,7.20818182 9.37227273,7.2 9.39954545,7.17545455 C10.6036364,6.03954545 12.3272727,5.49818182 13.9990909,5.49818182 C15.7336364,5.49818182 16.8559091,6.02045455 17.5854545,6.83590909 L17.5090909,6.73772727 C17.7327273,6.99136364 17.9277273,7.26545455 18.09,7.55727273 C18.1057493,7.58616171 18.1347562,7.60540216 18.167496,7.60867614 C18.2002358,7.61195012 18.2324784,7.59883463 18.2536364,7.57363636 C19.3513636,6.25636364 21.5181818,5.49954545 23.2622727,5.49954545 C27.2359091,5.49954545 28.485,8.20227273 28.485,10.845 L28.4740909,10.8504545 L28.4754545,10.8504545 Z M72.8918182,19.86 L69.9409091,19.86 C69.9104835,19.86 69.8817753,19.8459014 69.8631818,19.8218182 C68.7504545,18.3463636 67.9240909,16.92 67.5586364,16.47 L67.4918182,16.3881818 C66.885,15.6354545 65.6372727,14.0509091 63.9245455,13.7522727 C63.8936449,13.7475874 63.8623379,13.7576865 63.84,13.7795455 L62.5786364,15.0804545 C62.561312,15.0972919 62.5514842,15.1203873 62.5513636,15.1445455 L62.5513636,19.7427273 C62.5491542,19.7943739 62.5062333,19.8348766 62.4545455,19.8340909 L59.7081818,19.8340909 C59.6570209,19.8341379 59.6149199,19.7938412 59.6127273,19.7427273 L59.6127273,0.458181818 C59.6142036,0.406531776 59.6565107,0.365454537 59.7081818,0.365454537 L62.4545455,0.365454537 C62.5090909,0.365454537 62.5513636,0.406363636 62.5513636,0.458181818 L62.5513636,11.5636364 C62.5527273,11.6004545 62.5759091,11.6318182 62.6113636,11.6454545 C62.6468182,11.6590909 62.6863636,11.6536364 62.715,11.6290909 L68.7559091,5.57318182 C68.7743301,5.5557339 68.7987185,5.54597857 68.8240909,5.54590909 L72.0640909,5.54590909 C72.1022727,5.54727273 72.135,5.56909091 72.15,5.60318182 C72.1644314,5.63648937 72.1574409,5.675206 72.1322727,5.70136364 L65.9618182,11.8513636 C65.9408364,11.8724734 65.9316479,11.9025912 65.9372727,11.9318182 C65.9427273,11.9590909 65.9618182,11.985 65.9890909,11.9972727 C67.7672727,12.8140909 69.0013636,14.3427273 69.5754545,15.0531818 L69.6395455,15.1336364 C70.1304545,15.7390909 71.7668182,18.1159091 72.9763636,19.7222727 C72.9932685,19.7503814 72.9932685,19.7855277 72.9763636,19.8136364 C72.9587476,19.8419966 72.9279271,19.8594615 72.8945455,19.86 L72.8918182,19.86 Z" id="形状"></path>
                            <ellipse id="椭圆形" cx="1.88318182" cy="1.785" rx="1.79863636" ry="1.71818182"></ellipse>
                            <path d="M49.5981818,5.14363636 C45.3068182,5.14363636 42.4963636,7.875 42.4963636,12.5345455 C42.4963636,17.2118182 45.3190909,19.9268182 49.5981818,19.9268182 C53.8759091,19.9268182 56.6972727,17.2104545 56.6972727,12.5359091 C56.6972727,7.88318182 53.865,5.14363636 49.5981818,5.14363636 Z M49.5981818,17.6113636 C46.6990909,17.6113636 45.3081818,15.7118182 45.3081818,12.3954545 C45.3081818,9.09818182 46.6990909,7.45636364 49.5981818,7.45636364 C52.4972727,7.45636364 53.8786364,9.23454545 53.8786364,12.5318182 C53.8786364,15.8304545 52.4877273,17.6113636 49.5981818,17.6113636 L49.5981818,17.6113636 Z M81.4118182,17.7954545 C79.86,18.0040909 78.3177273,17.3590909 77.4245455,16.1290909 C76.9472727,15.5154545 76.695,14.8036364 76.5245455,13.8695455 C76.5209445,13.8453535 76.5273446,13.820738 76.5422727,13.8013636 C76.5576972,13.781513 76.5801484,13.7683351 76.605,13.7645455 L84.4431818,12.7077273 C86.5922727,12.405 87.4909091,10.5490909 86.6795455,8.75863636 C85.9393226,7.26480067 84.6608704,6.10669058 83.1013636,5.51727273 C80.9740909,4.69363636 78.1118182,5.175 76.5859091,6.39 C74.55,8.01272727 73.8545455,9.96409091 73.7468182,12.0381818 C73.7331818,12.27 73.7277273,12.5018182 73.7277273,12.7336364 C73.7277273,13.2136364 73.7686364,13.6922727 73.8531818,14.1654545 C74.3904545,17.2745455 76.6745455,20.13 80.5009091,20.1436916 C84.8318182,20.1572727 86.8772727,17.6427273 87.2277273,15.7581818 C87.2317223,15.7293887 87.2215645,15.7004389 87.2004545,15.6804545 C87.1787401,15.659408 87.1486359,15.6493733 87.1186364,15.6531818 L84.4186364,16.0527273 C84.3904749,16.0580868 84.3657913,16.0748716 84.3504545,16.0990909 C83.6086364,17.1286364 82.7454545,17.5990909 81.4118182,17.7954545 L81.4118182,17.7954545 Z M77.3618182,8.98090909 C78.1205258,8.05312509 79.2311591,7.48298682 80.4272727,7.40727273 C81.6477273,7.30909091 82.6363636,7.47409091 83.5036364,8.29363636 C83.8145455,8.58545455 84.0777273,8.92090909 84.2863636,9.28636364 C84.6,9.82636364 84.2672727,10.6118182 83.5568182,10.7086364 L76.4168182,11.6659091 C76.3872426,11.6704392 76.3571979,11.6614258 76.335,11.6413636 C76.3147162,11.621981 76.3046314,11.594248 76.3077273,11.5663636 C76.4304545,10.5109091 76.7604545,9.73363636 77.3618182,8.98090909 L77.3618182,8.98090909 Z M102.373636,11.1109091 L102.373636,19.7413636 C102.37216,19.7930137 102.329853,19.834131 102.278182,19.834131 L99.5863636,19.834131 C99.5610446,19.8348247 99.5364722,19.825465 99.5180572,19.8080731 C99.4996422,19.7906812 99.4888949,19.7666832 99.4881818,19.7413636 L99.4881818,12.5672727 C99.4881818,12.5672727 99.5222727,11.3563636 99.42,10.2272727 C99.3463636,9.43363636 99.0709091,8.66454545 98.4381818,8.16409091 C97.5381818,7.44954545 96.2645455,7.60772727 96.2645455,7.60772727 C94.6840909,7.77136364 93.3218182,8.71909091 92.4709091,9.675 L92.4218182,9.73090909 L92.4709091,9.71045455 L92.4709091,19.7386364 C92.4694231,19.7908205 92.4262906,19.8321306 92.3740909,19.8313636 L89.6740909,19.8313636 C89.6487719,19.8320974 89.6241994,19.8227378 89.6057845,19.8053459 C89.5873695,19.7879539 89.5766222,19.7639559 89.5759091,19.7386364 L89.5759091,5.65636364 C89.577395,5.6041795 89.6205276,5.56286942 89.6727273,5.56363636 L91.8886364,5.56363636 C91.9431818,5.56363636 91.9868182,5.60454545 91.9868182,5.65636364 L91.9868182,7.03636364 C91.9868182,7.07318182 92.0113636,7.10454545 92.0481818,7.11818182 C92.0836364,7.13181818 92.1231818,7.125 92.1504545,7.09909091 C93.2945455,5.91136364 95.0222727,5.19681818 96.8331818,5.19681818 C98.3331818,5.19954545 102.372273,5.25954545 102.372273,11.1109091 L102.373636,11.1109091 Z" id="形状"></path>
                        </g>
                    </g>
                </g>
            </g>
        </g>
    </g>
</svg>