<?xml version="1.0" encoding="UTF-8"?>
<svg width="210px" height="51px" viewBox="0 0 210 51" version="1.1" xmlns="http://www.w3.org/2000/svg" xmlns:xlink="http://www.w3.org/1999/xlink">
    <title>PolyNetwork</title>
    <g id="PC" stroke="none" stroke-width="1" fill="none" fill-rule="evenodd">
        <g id="首页" transform="translate(-1013.000000, -2730.000000)">
            <g id="编组-23" transform="translate(360.000000, 2705.529158)">
                <g id="PolyNetwork" transform="translate(622.000000, 0.000000)">
                    <g transform="translate(31.000000, 25.000000)">
                        <rect id="矩形" x="0" y="0" width="210" height="50"></rect>
                        <g transform="translate(8.000000, 3.000000)">
                            <polygon id="Fill-1" fill="#282BDB" points="14.0375551 41.5618937 18.3051142 44.0262638 19.1122795 44.4915 19.1122795 34.3888228 14.0375551 31.4592165"></polygon>
                            <polygon id="Fill-2" fill="#282BDB" points="0 33.4571102 8.74913386 38.5091575 8.74913386 16.440378 0 11.3890394"></polygon>
                            <polygon id="Fill-3" fill="#3581E6" points="29.4737953 16.4397756 29.4737953 28.4065866 19.1121024 34.389815 19.1121024 44.4921378 38.2232835 33.4565079 38.2232835 11.3898543"></polygon>
                            <polygon id="Fill-4" fill="#3EC7EB" points="19.1116063 0.354259843 0.000779527559 11.3898898 8.75026772 16.439811 19.112315 10.4565827 29.4736535 16.439811 38.2234961 11.3898898 19.1126693 0.354259843"></polygon>
                            <g transform="translate(48.000000, 14.200906)" fill="#000000">
                                <path d="M7.71061565,7.82871949 C9.52740207,7.82871949 10.4355517,7.04529429 10.4355517,5.47649508 C10.4355517,4.66968406 10.2099759,4.07139665 9.76028593,3.68260728 C9.30913435,3.29479232 8.62704774,3.10088484 7.71061565,3.10088484 L4.26315502,3.10088484 L4.26315502,7.82871949 L7.71061565,7.82871949 Z M0.63006939,0.328202756 L8.17638337,0.328202756 C9.96150148,0.328202756 11.3519838,0.779354331 12.3458814,1.67970866 C13.3392918,2.5810374 13.8362406,3.8385128 13.8362406,5.45310925 C13.8362406,7.06819291 13.3392918,8.32615551 12.3458814,9.22650984 C11.3519838,10.1273514 9.96150148,10.5775285 8.17638337,10.5775285 L4.26315502,10.5775285 L4.26315502,16.7499252 L0.63006939,16.7499252 L0.63006939,0.328202756 Z" id="Fill-5"></path>
                                <path d="M23.8564341,10.9736747 C23.8564341,9.87064321 23.6352431,9.04824163 23.1933484,8.50452116 C22.7499921,7.96080069 22.1176004,7.68942766 21.2947116,7.68942766 C19.5860846,7.68942766 18.732502,8.78368947 18.732502,10.9736747 C18.732502,13.1626855 19.5860846,14.2574345 21.2947116,14.2574345 C23.0023642,14.2574345 23.8564341,13.1626855 23.8564341,10.9736747 M18.1030335,16.2023558 C17.1875758,15.7136895 16.4806417,15.0228332 15.9841801,14.1297869 C15.4862569,13.2372279 15.2392441,12.1843784 15.2392441,10.9736747 C15.2392441,9.76248376 15.4862569,8.71012156 15.9841801,7.8170753 C16.4806417,6.92402904 17.1875758,6.23755758 18.1030335,5.75571211 C19.0194656,5.27484104 20.0840079,5.0336747 21.2947116,5.0336747 C22.5054154,5.0336747 23.5689833,5.27484104 24.4859026,5.75571211 C25.4023346,6.23755758 26.1082943,6.92402904 26.6052431,7.8170753 C27.1017047,8.71012156 27.3506663,9.76248376 27.3506663,10.9736747 C27.3506663,12.1843784 27.1017047,13.2372279 26.6052431,14.1297869 C26.1082943,15.0228332 25.4023346,15.7136895 24.4859026,16.2023558 C23.5689833,16.6915094 22.5054154,16.9365733 21.2947116,16.9365733 C20.0840079,16.9365733 19.0194656,16.6915094 18.1030335,16.2023558" id="Fill-7"></path>
                                <polygon id="Fill-9" points="29.7035728 16.7498278 33.2207037 16.7498278 33.2207037 0.32859252 29.7035728 0.32859252"></polygon>
                                <polygon id="Fill-11" points="44.2999828 5.33652116 47.7474434 5.33652116 40.8534966 20.9421757 37.289594 20.9421757 39.4786048 16.1212849 34.7736688 5.33652116 38.4306275 5.33652116 41.3187771 12.604154"></polygon>
                                <path d="M69.9319695,8.09707185 C69.5353848,8.52386319 69.2912953,9.14163878 69.197752,9.9484498 L73.6936772,9.9484498 C73.6464183,9.12556102 73.4403307,8.504375 73.0759016,8.08537894 C72.7109852,7.66589567 72.1950354,7.45639764 71.5270778,7.45639764 C70.8591201,7.45639764 70.3275797,7.66979331 69.9319695,8.09707185 L69.9319695,8.09707185 Z M76.6510098,11.6955659 L69.197752,11.6955659 C69.3059114,12.611998 69.6060295,13.2755709 70.0946959,13.6872589 C70.5838494,14.0984596 71.2786033,14.30406 72.1789577,14.30406 C72.7689626,14.30406 73.3550699,14.2075935 73.9377667,14.0131988 C74.5194892,13.8192913 75.0515167,13.5440207 75.5333622,13.1864124 L76.4653848,15.5386368 C75.9060738,15.9737106 75.2264232,16.3152411 74.4274075,16.5632283 C73.6269301,16.81219 72.8235295,16.9369144 72.0157441,16.9369144 C70.090311,16.9369144 68.5726683,16.4048868 67.4623287,15.3408317 C66.351502,14.277751 65.7975502,12.8288041 65.7975502,10.9964272 C65.7975502,9.83249508 66.0382293,8.79913386 66.5191004,7.89926673 C66.9999715,6.9984252 67.6684163,6.29538878 68.521999,5.79113189 C69.3755817,5.2863878 70.3470679,5.03352854 71.4340217,5.03352854 C73.0335148,5.03352854 74.3026831,5.55386319 75.2420138,6.59453248 C76.1808573,7.63520177 76.6510098,9.04809547 76.6510098,10.8337008 L76.6510098,11.6955659 Z" id="Fill-12"></path>
                                <path d="M86.6087436,14.2808204 L86.4221442,16.8435172 C85.9709926,16.9053922 85.5217899,16.9365733 85.0711255,16.9365733 C83.3318046,16.9365733 82.0626363,16.5560664 81.2631334,15.7945655 C80.4631432,15.0345261 80.0636353,13.8774149 80.0636353,12.3242062 L80.0636353,7.94521014 L77.8975231,7.94521014 L77.8975231,5.31381742 L80.0636353,5.31381742 L80.0636353,1.95892569 L83.580279,1.95892569 L83.580279,5.31381742 L86.44553,5.31381742 L86.44553,7.94521014 L83.580279,7.94521014 L83.580279,12.3013076 C83.580279,13.6674296 84.2175428,14.3509779 85.4901216,14.3509779 C85.8477298,14.3509779 86.2204414,14.327592 86.6087436,14.2808204" id="Fill-13"></path>
                                <polygon id="Fill-14" points="104.424554 5.31371998 107.848628 5.31371998 103.213363 16.7498765 100.232157 16.7498765 97.7157446 10.2978243 95.2709513 16.7498765 92.3126442 16.7498765 87.6535054 5.31371998 91.2407938 5.31371998 93.9428312 12.5574798 96.6443814 5.31371998 99.020966 5.31371998 101.745902 12.6271501"></polygon>
                                <path d="M117.060939,10.9736747 C117.060939,9.87064321 116.839748,9.04824163 116.396879,8.50452116 C115.954497,7.96080069 115.321131,7.68942766 114.499217,7.68942766 C112.790102,7.68942766 111.936032,8.78368947 111.936032,10.9736747 C111.936032,13.1626855 112.790102,14.2574345 114.499217,14.2574345 C116.206869,14.2574345 117.060939,13.1626855 117.060939,10.9736747 M111.307538,16.2023558 C110.391594,15.7136895 109.684659,15.0228332 109.187711,14.1297869 C108.690762,13.2372279 108.442775,12.1843784 108.442775,10.9736747 C108.442775,9.76248376 108.690762,8.71012156 109.187711,7.8170753 C109.684659,6.92402904 110.391594,6.23755758 111.307538,5.75571211 C112.22397,5.27484104 113.287538,5.0336747 114.499217,5.0336747 C115.70992,5.0336747 116.773488,5.27484104 117.689433,5.75571211 C118.605865,6.23755758 119.311825,6.92402904 119.809748,7.8170753 C120.30621,8.71012156 120.554684,9.76248376 120.554684,10.9736747 C120.554684,12.1843784 120.30621,13.2372279 119.809748,14.1297869 C119.311825,15.0228332 118.605865,15.7136895 117.689433,16.2023558 C116.773488,16.6915094 115.70992,16.9365733 114.499217,16.9365733 C113.287538,16.9365733 112.22397,16.6915094 111.307538,16.2023558" id="Fill-15"></path>
                                <path d="M131.057161,7.92197047 L129.077649,8.13195571 C128.098854,8.22501181 127.408485,8.50076969 127.00508,8.95874213 C126.600213,9.41622736 126.39851,10.0262077 126.39851,10.7872215 L126.39851,16.7496329 L122.881866,16.7496329 L122.881866,5.31347638 L126.258195,5.31347638 L126.258195,7.24621752 C126.833096,5.92637992 128.021389,5.20482972 129.823072,5.08010531 L130.847176,5.01043504 L131.057161,7.92197047 Z" id="Fill-16"></path>
                                <polygon id="Fill-17" points="144.847783 16.7496816 140.538945 16.7496816 136.160436 11.6491353 136.160436 16.7496816 132.642818 16.7496816 132.642818 0.328446358 136.160436 0.328446358 136.160436 10.2045733 140.375731 5.33642372 144.569102 5.33642372 139.770136 10.7872702"></polygon>
                                <polygon id="Fill-18" points="60.144124 0.328446358 63.544813 0.328446358 63.544813 16.7496816 60.8432628 16.7496816 52.6669931 6.29134498 52.6669931 16.7496816 49.28969 16.7496816 49.28969 0.328446358 51.9683415 0.328446358 60.144124 10.7404985"></polygon>
                            </g>
                        </g>
                    </g>
                </g>
            </g>
        </g>
    </g>
</svg>